<?xml version="1.0" standalone="no"?>
<!DOCTYPE svg PUBLIC "-//W3C//DTD SVG 20010904//EN"
 "http://www.w3.org/TR/2001/REC-SVG-20010904/DTD/svg10.dtd">
<svg version="1.0" xmlns="http://www.w3.org/2000/svg"
 width="1179.000000pt" height="1178.000000pt" viewBox="0 0 1179.000000 1178.000000"
 preserveAspectRatio="xMidYMid meet">
<metadata>
Created by potrace 1.16, written by Peter Selinger 2001-2019
</metadata>
<g transform="translate(0.000000,1178.000000) scale(0.100000,-0.100000)"
fill="#000000" stroke="none">
<path d="M0 5890 l0 -5890 5895 0 5895 0 0 35 0 35 -334 0 -334 0 -7 27 c-7
29 -17 85 -34 189 -6 34 -22 119 -37 190 -32 156 -41 201 -54 279 -9 55 -16
90 -40 200 -19 84 -31 141 -36 170 -3 17 -10 53 -15 80 -5 28 -12 68 -15 90
-4 22 -10 45 -14 50 -5 6 -15 57 -24 115 -9 58 -20 125 -25 150 -5 25 -22 110
-36 190 -33 181 -73 355 -91 399 -8 18 -14 44 -14 57 0 12 -4 25 -9 28 -5 4
-12 25 -16 49 -4 23 -14 51 -21 62 -8 11 -14 28 -14 38 0 10 -6 28 -14 40 -8
12 -17 37 -21 56 -4 19 -14 41 -21 49 -8 7 -14 25 -14 39 0 14 -9 36 -20 50
-11 14 -20 36 -20 48 0 12 -7 28 -14 35 -8 6 -20 28 -27 48 -7 20 -18 42 -24
47 -7 6 -18 26 -24 47 -7 20 -18 39 -26 41 -7 3 -16 21 -20 39 -4 18 -16 41
-26 51 -10 10 -22 29 -25 43 -4 14 -17 36 -30 49 -13 13 -24 30 -24 38 0 8 -9
22 -20 32 -10 9 -24 33 -30 51 -7 19 -16 34 -21 34 -6 0 -18 17 -27 38 -9 20
-29 49 -45 64 -15 15 -27 34 -27 42 0 9 -9 20 -20 26 -11 6 -27 26 -35 45 -7
19 -19 35 -24 35 -6 0 -20 18 -31 40 -12 23 -27 43 -35 46 -8 3 -20 21 -27 40
-6 19 -17 34 -24 34 -6 0 -19 16 -28 35 -9 19 -23 38 -30 42 -7 4 -21 22 -31
38 -10 17 -30 42 -44 57 -14 14 -39 45 -56 68 -16 23 -45 58 -62 78 -18 20
-33 40 -33 44 0 4 -16 22 -35 39 -19 18 -35 37 -35 44 0 6 -13 21 -30 33 -16
13 -30 27 -30 33 0 5 -17 27 -37 47 -21 21 -67 70 -103 110 -36 40 -95 105
-132 144 -38 39 -68 77 -68 84 0 8 -6 14 -13 14 -14 0 -57 41 -57 53 0 4 -16
21 -35 38 -19 17 -35 37 -35 43 0 7 -11 18 -25 24 -14 7 -30 23 -37 37 -6 14
-16 25 -22 25 -12 0 -56 43 -56 55 0 3 -13 18 -30 32 -16 13 -30 29 -30 35 0
6 -10 21 -22 33 -53 54 -122 143 -154 200 -9 17 -23 34 -30 38 -8 4 -21 24
-29 43 -8 18 -19 34 -24 34 -6 0 -20 18 -31 40 -12 23 -27 43 -35 46 -7 3 -19
20 -26 37 -7 18 -23 40 -36 50 -12 10 -25 26 -28 37 -3 11 -19 33 -36 49 -16
16 -29 37 -29 45 0 9 -4 16 -10 16 -15 0 -97 86 -105 109 -3 12 -10 21 -14 21
-8 0 -10 43 -1 50 3 3 11 18 18 34 9 20 16 26 21 18 6 -10 14 -8 32 6 13 11
36 20 50 20 15 0 37 10 50 23 20 20 23 21 29 5 5 -16 8 -15 35 6 17 12 33 27
37 33 5 6 8 3 8 -7 0 -24 26 -23 43 2 11 16 21 19 46 14 24 -5 35 -2 47 12 12
14 17 16 21 6 4 -10 11 -8 29 9 14 13 40 24 61 26 21 2 52 5 68 8 135 21 165
28 165 40 0 8 23 18 58 24 31 7 77 17 102 22 25 6 61 11 80 10 19 0 40 5 46
10 7 5 24 7 38 3 17 -4 26 -2 26 6 0 7 8 10 20 7 11 -3 23 -1 26 4 3 5 20 9
38 9 52 0 206 53 206 71 0 4 21 10 48 14 26 3 72 19 103 35 31 17 64 30 73 30
9 0 16 5 16 10 0 6 6 10 14 10 22 0 102 38 116 55 7 9 20 13 27 11 8 -3 35 6
61 20 26 15 75 37 109 49 62 23 76 32 118 73 12 12 27 22 32 22 5 0 24 16 43
35 19 19 40 35 47 35 7 0 13 4 13 9 0 5 18 28 39 52 22 24 46 51 55 61 8 9 12
19 9 22 -3 3 6 10 20 17 14 6 35 32 48 56 13 25 29 48 36 50 7 3 13 9 13 13 0
4 24 32 53 62 49 51 82 88 177 203 104 124 303 295 343 295 7 0 17 4 23 9 20
19 154 43 202 37 48 -7 136 -45 182 -79 49 -36 93 -72 119 -99 14 -16 31 -28
38 -28 11 0 13 431 13 2250 l0 2250 -5895 0 -5895 0 0 -5890z m5785 2132 c6
-4 20 -19 33 -33 l23 -26 -24 0 c-18 0 -28 9 -39 33 -15 33 -13 41 7 26z m354
-288 c2 -2 -7 -4 -22 -4 -14 0 -32 -3 -41 -6 -11 -4 -16 -1 -16 10 0 14 7 16
38 10 20 -4 39 -8 41 -10z m-699 -143 c0 -6 -5 -13 -10 -16 -11 -7 -8 -34 8
-76 6 -15 7 -31 1 -40 -6 -10 -9 -10 -9 -1 0 20 -21 14 -27 -8 -3 -11 -9 -20
-14 -20 -5 0 -9 -7 -9 -15 0 -9 6 -12 15 -9 17 7 21 -11 5 -21 -21 -13 -10
-34 19 -33 15 1 33 -2 39 -6 6 -3 15 1 20 10 5 9 22 18 37 19 15 2 32 8 38 14
6 6 24 11 39 11 15 0 28 5 28 10 0 6 14 10 30 10 17 0 39 5 49 11 35 22 64 4
99 -63 34 -66 110 -158 129 -158 6 0 13 -6 16 -14 3 -7 19 -16 36 -19 17 -4
37 -11 44 -17 6 -6 21 -17 32 -25 11 -7 16 -17 12 -22 -16 -15 -258 -7 -306
11 -47 17 -67 15 -31 -4 78 -42 284 -62 372 -36 31 9 65 16 76 16 11 0 22 6
25 14 4 9 14 12 25 9 11 -2 23 0 26 6 4 6 18 11 31 11 13 0 28 6 32 13 4 6 19
12 33 12 18 0 25 5 25 20 0 13 7 20 20 20 13 0 19 6 17 17 -1 9 14 33 34 55
21 21 34 32 29 24 -5 -10 -4 -12 3 -7 7 4 12 15 12 24 0 12 3 13 12 4 19 -19
38 -14 38 9 0 11 4 17 10 14 6 -4 9 -25 6 -48 -3 -23 -10 -86 -17 -139 -6 -54
-15 -98 -20 -98 -5 0 -9 -11 -9 -24 0 -14 -4 -27 -9 -31 -6 -3 -13 -26 -17
-50 -4 -29 -11 -45 -20 -45 -8 0 -14 -6 -14 -14 0 -8 -4 -16 -9 -18 -4 -1 -12
-14 -16 -28 -7 -24 -7 -24 9 -5 8 11 16 17 16 13 0 -12 40 31 40 43 0 6 7 9
15 5 9 -3 15 0 15 9 0 8 5 15 11 15 7 0 22 11 35 25 13 14 27 25 32 25 5 0 12
10 15 21 6 21 7 20 38 -11 23 -23 33 -41 32 -64 0 -49 -7 -86 -15 -86 -4 0 -8
-15 -8 -34 0 -19 -5 -38 -11 -41 -6 -4 -8 -12 -6 -19 3 -6 -1 -20 -8 -29 -7
-10 -10 -27 -7 -39 4 -17 2 -20 -13 -15 -13 5 -16 3 -11 -8 3 -8 0 -26 -6 -40
-6 -14 -9 -28 -5 -31 8 -9 44 14 76 47 16 16 33 29 40 29 6 0 11 7 11 15 0 8
7 15 15 15 8 0 15 9 15 20 0 11 6 20 13 20 17 0 57 45 57 64 0 9 7 16 15 16 9
0 15 9 15 25 0 18 5 25 20 25 15 0 20 7 20 25 0 18 5 25 20 25 15 0 20 7 20
29 0 20 6 30 20 34 15 4 20 14 20 36 0 24 4 31 19 31 16 0 20 8 23 37 3 32 7
38 36 45 18 5 32 15 32 23 0 18 16 20 23 3 5 -11 11 35 10 70 -1 20 25 14 32
-8 3 -11 12 -20 19 -20 7 0 25 -11 40 -25 15 -14 31 -25 36 -25 5 0 12 -9 15
-20 3 -11 11 -20 16 -20 5 0 30 -19 54 -42 61 -59 97 -88 107 -88 4 0 8 -6 8
-14 0 -7 10 -21 23 -29 21 -15 19 -16 -46 -16 -51 -1 -69 3 -73 14 -4 8 -10
15 -16 15 -5 0 -28 9 -50 20 -23 11 -61 20 -85 20 -34 0 -43 4 -43 17 0 13 -3
14 -11 6 -9 -9 -9 -20 0 -44 16 -46 14 -62 -5 -55 -32 12 -54 -3 -54 -39 0
-29 -4 -34 -27 -37 -25 -3 -28 -8 -31 -45 -3 -39 -5 -42 -30 -40 -25 2 -27 -1
-30 -40 -3 -40 -5 -43 -32 -43 -26 0 -29 -4 -32 -37 -2 -25 -8 -38 -18 -39 -8
-1 -21 -2 -27 -2 -8 -1 -13 -17 -13 -42 0 -38 -2 -40 -29 -40 -27 0 -30 -3
-33 -37 -3 -34 -6 -37 -33 -38 -27 0 -30 -3 -33 -37 -3 -35 -6 -38 -33 -38
-29 0 -30 -2 -27 -37 3 -36 2 -38 -29 -41 -30 -3 -33 -6 -33 -38 0 -32 -2 -34
-35 -34 -33 0 -35 -2 -35 -35 0 -33 -2 -35 -34 -35 -30 0 -35 -3 -38 -27 -3
-24 -8 -28 -35 -28 -37 0 -47 -8 -48 -38 0 -18 -7 -23 -40 -27 -32 -4 -40 -9
-40 -25 0 -16 -8 -21 -42 -23 -38 -3 -43 -6 -43 -28 0 -21 -4 -24 -40 -24 -38
0 -40 -2 -40 -30 0 -28 -2 -30 -40 -30 -34 0 -41 -4 -46 -24 -5 -20 -13 -26
-42 -28 -32 -3 -37 -7 -40 -30 -3 -24 -8 -27 -45 -30 -35 -3 -42 -7 -47 -28
-4 -18 -13 -25 -30 -27 -14 0 -31 -1 -37 -2 -7 -1 -13 -12 -13 -26 0 -22 -4
-25 -40 -25 -36 0 -40 -2 -40 -25 0 -23 -4 -25 -45 -25 -41 0 -45 -2 -45 -25
0 -22 -4 -25 -40 -25 -28 0 -40 -4 -40 -14 0 -20 -19 -30 -55 -31 -25 0 -31
-4 -33 -27 -3 -26 -7 -28 -48 -28 -37 0 -44 -3 -44 -20 0 -20 -3 -22 -55 -24
-23 -1 -31 -6 -33 -23 -3 -19 -10 -23 -42 -23 -30 0 -40 -5 -45 -20 -5 -16
-15 -20 -50 -20 -24 0 -47 -4 -50 -10 -10 -15 -71 -12 -85 5 -7 8 -20 15 -30
15 -9 0 -25 9 -35 20 -10 11 -24 20 -32 20 -7 0 -13 5 -13 10 0 6 -7 10 -15
10 -8 0 -15 4 -15 8 0 8 -22 33 -152 168 -32 34 -58 66 -58 73 0 6 -4 11 -9
11 -5 0 -33 23 -61 50 -28 28 -56 50 -61 50 -5 0 -9 7 -9 15 0 9 -11 20 -25
25 -14 5 -25 14 -25 20 0 5 -4 10 -9 10 -5 0 -30 20 -57 45 -26 25 -52 45 -58
45 -14 0 -66 48 -66 60 0 6 -6 10 -12 10 -7 0 -30 16 -52 36 -21 19 -49 42
-62 51 -13 8 -24 19 -24 24 0 5 -29 39 -65 74 -36 36 -65 69 -65 73 0 5 -13
21 -30 37 -17 16 -30 36 -30 44 0 9 -14 29 -30 45 -17 16 -30 35 -30 41 0 6
-11 22 -25 35 -14 13 -25 31 -25 39 0 9 -11 32 -24 51 -13 19 -27 50 -30 67
-4 18 -12 35 -17 38 -5 4 -9 15 -9 25 0 11 -9 34 -20 52 -11 18 -20 48 -20 66
0 31 1 32 23 21 12 -7 25 -17 29 -23 4 -6 11 -11 15 -11 4 0 24 -9 43 -21 38
-22 36 -21 80 -34 63 -18 45 20 -65 133 -30 32 -72 84 -92 115 -20 31 -39 59
-42 62 -23 20 -103 189 -108 231 -3 21 -9 36 -14 34 -11 -7 -23 80 -13 96 4 7
8 31 8 53 1 22 7 41 14 44 10 3 9 9 -4 23 -17 19 -17 19 10 5 16 -8 53 -41 84
-73 75 -77 109 -102 133 -96 13 4 29 -5 52 -30 20 -22 43 -37 62 -39 18 -2 30
-9 30 -17 0 -8 14 -18 30 -23 42 -12 193 1 210 18 8 8 28 17 44 20 17 4 31 12
31 19 0 21 27 25 44 6 9 -10 16 -22 16 -27 0 -15 67 -142 84 -159 9 -9 16 -22
16 -30 0 -7 7 -15 15 -19 8 -3 15 -12 15 -20 0 -8 3 -16 8 -18 4 -1 27 -32 52
-68 24 -36 48 -66 52 -68 4 -2 8 -8 8 -14 0 -28 213 -261 266 -291 33 -19 10
19 -52 87 -37 39 -71 81 -77 94 -6 12 -14 22 -19 22 -4 0 -8 5 -8 12 0 6 -10
25 -23 42 -51 69 -125 261 -132 345 -2 20 -9 56 -15 81 -14 62 -30 163 -25
168 6 6 59 -31 78 -55 10 -13 24 -23 31 -23 7 0 22 -10 33 -22 43 -49 262
-254 336 -316 15 -12 64 -47 109 -77 71 -48 88 -55 130 -55 34 0 50 -5 54 -15
4 -8 10 -12 15 -9 5 3 9 1 9 -4 0 -17 75 -50 102 -45 14 3 29 0 32 -6 4 -6 17
-11 29 -11 12 0 31 -7 41 -15 11 -8 27 -15 37 -15 9 0 22 -7 29 -15 7 -8 23
-15 36 -15 12 0 25 -4 28 -9 6 -9 10 -10 116 -35 68 -16 162 -20 193 -8 11 5
-13 15 -75 31 -51 13 -115 34 -143 46 -27 12 -58 25 -67 28 -10 4 -18 11 -18
17 0 5 -10 10 -23 10 -12 0 -28 9 -35 20 -7 11 -21 20 -32 20 -11 0 -20 6 -20
13 0 25 13 27 41 6 28 -20 29 -20 29 -1 0 11 -7 25 -16 33 -21 18 -90 117
-110 159 -4 8 -18 32 -31 52 -13 21 -23 44 -23 52 0 7 -7 27 -15 42 -8 16 -15
37 -15 46 0 9 -4 20 -10 23 -5 3 -10 17 -10 30 0 13 -5 27 -10 30 -6 4 -8 10
-5 15 3 5 1 11 -5 15 -5 3 -10 16 -10 28 0 12 -7 35 -15 51 -8 15 -15 34 -15
41 0 7 -7 25 -14 41 -17 32 -12 46 14 42 10 -2 27 5 38 15 10 10 39 21 63 26
61 12 59 12 59 2z m-1421 -72 c33 -33 46 -40 66 -35 31 8 31 -1 1 -38 -20 -24
-26 -26 -44 -17 -32 17 -72 75 -72 104 0 15 2 27 4 27 2 0 22 -18 45 -41z
m3805 0 c21 -11 44 -18 51 -15 33 12 70 -45 45 -70 -7 -7 -8 -19 -1 -37 9 -22
8 -27 -4 -27 -8 0 -15 5 -15 11 0 5 -5 7 -10 4 -6 -3 -13 2 -17 12 -4 10 -17
26 -30 36 -13 10 -23 22 -23 27 0 5 -11 21 -25 36 -43 47 -32 56 29 23z
m-1771 -22 c4 3 7 -1 7 -10 0 -15 -3 -15 -20 -5 -11 7 -20 17 -20 22 0 4 6 3
13 -3 8 -6 17 -8 20 -4z m1317 -11 c0 -7 15 -21 33 -29 18 -9 41 -25 52 -37
10 -11 22 -20 27 -20 5 0 29 -16 52 -35 24 -19 50 -35 59 -35 25 0 131 -42
143 -57 6 -7 21 -13 33 -13 12 0 24 -7 27 -15 4 -8 12 -15 19 -15 14 0 25 -22
25 -51 0 -14 -7 -19 -30 -19 -28 0 -30 -2 -30 -40 l0 -40 -40 0 c-38 0 -40 -2
-40 -29 0 -27 -3 -30 -37 -33 -33 -3 -38 -7 -41 -30 -2 -20 -9 -28 -23 -28
-23 0 -69 38 -69 57 0 8 -6 16 -14 19 -8 3 -20 18 -26 32 -6 15 -22 47 -35 72
-13 25 -24 52 -24 60 -1 8 -8 28 -16 44 -8 15 -15 37 -15 47 0 10 -4 20 -9 23
-5 3 -12 23 -16 43 -4 21 -13 52 -20 68 -27 61 -28 75 -6 75 12 0 21 -6 21
-14z m-3825 -25 c-6 -5 -25 10 -25 20 0 5 6 4 14 -3 8 -7 12 -15 11 -17z
m2521 -101 c12 0 27 7 34 15 15 19 30 19 30 2 0 -21 -53 -86 -70 -86 -33 0
-90 68 -90 107 0 23 0 23 37 -7 21 -17 47 -31 59 -31z m270 48 c38 -33 44 -41
44 -63 0 -13 4 -26 9 -29 15 -10 0 -58 -16 -52 -9 4 -17 -2 -20 -14 -3 -12
-13 -20 -22 -19 -30 3 -42 -1 -36 -11 3 -5 -3 -10 -14 -10 -12 0 -21 7 -21 15
0 8 -4 15 -10 15 -5 0 -10 9 -10 20 0 11 7 20 15 20 8 0 15 9 15 20 0 10 7 23
16 28 11 6 15 17 11 31 -3 11 -1 21 4 21 5 0 9 9 9 20 0 23 5 25 26 8z m1601
-70 c-3 -8 -6 -5 -6 6 -1 11 2 17 5 13 3 -3 4 -12 1 -19z m-1717 -123 c0 -8
-2 -15 -4 -15 -2 0 -6 7 -10 15 -3 8 -1 15 4 15 6 0 10 -7 10 -15z m847 -67
c-3 -7 -5 -2 -5 12 0 14 2 19 5 13 2 -7 2 -19 0 -25z m-880 16 c-3 -3 -12 -4
-19 -1 -8 3 -5 6 6 6 11 1 17 -2 13 -5z m1048 -381 c13 -31 16 -66 15 -141 -1
-45 3 -79 11 -88 14 -17 5 -152 -11 -168 -6 -6 -10 -20 -10 -32 0 -13 -11 -44
-25 -70 -14 -26 -25 -53 -25 -60 0 -8 -7 -14 -15 -14 -9 0 -15 -9 -15 -25 0
-14 -4 -25 -10 -25 -5 0 -10 -7 -10 -15 0 -9 -7 -18 -15 -21 -8 -4 -15 -12
-15 -19 0 -7 -21 -34 -46 -60 -25 -26 -43 -49 -40 -52 3 -3 19 8 35 26 23 25
37 31 70 31 23 0 41 5 41 10 0 6 9 10 20 10 10 0 23 6 27 14 4 8 17 15 28 17
12 3 21 14 23 27 2 16 10 22 27 22 18 0 24 6 27 28 2 21 9 28 31 30 18 2 29
-2 33 -12 3 -9 12 -16 20 -16 8 0 16 -16 20 -41 4 -22 15 -48 25 -57 9 -10 21
-35 25 -56 4 -22 17 -49 28 -60 12 -12 28 -40 35 -64 8 -27 20 -47 35 -53 14
-7 26 -25 32 -47 6 -25 20 -44 44 -60 21 -14 38 -36 43 -54 6 -22 18 -34 46
-45 29 -11 41 -23 48 -47 7 -25 17 -34 52 -45 32 -10 45 -21 52 -41 9 -25 44
-50 70 -50 25 0 36 -27 32 -77 -5 -47 -8 -52 -32 -55 -20 -2 -27 -10 -31 -33
-4 -26 -9 -30 -34 -30 -25 0 -31 -5 -38 -31 -7 -27 -11 -30 -43 -26 -33 4 -36
2 -41 -28 -6 -29 -9 -31 -43 -28 -33 3 -36 0 -39 -24 -3 -24 -8 -27 -45 -30
-35 -2 -43 -7 -45 -25 -3 -19 -10 -23 -43 -23 -32 0 -39 -3 -39 -20 0 -17 -7
-20 -45 -20 -39 0 -45 -3 -51 -25 -5 -21 -12 -25 -44 -25 -30 0 -39 -4 -43
-21 -4 -16 -13 -20 -39 -19 -51 3 -58 1 -58 -15 0 -11 -12 -15 -44 -15 -25 0
-46 -5 -48 -12 -2 -6 -22 -12 -44 -13 -55 -4 -56 -4 -49 -14 7 -13 -17 -19
-105 -26 -41 -4 -85 -11 -97 -17 -18 -9 -27 -8 -43 7 -14 13 -28 16 -52 11
-18 -3 -49 -8 -69 -10 -20 -2 -43 -7 -50 -12 -8 -5 -30 -9 -49 -10 -19 -1 -90
-7 -157 -13 -68 -7 -146 -11 -174 -9 l-52 3 -19 60 c-11 33 -24 64 -29 69 -5
6 -9 18 -9 27 0 9 -7 22 -15 29 -8 7 -15 21 -15 31 0 50 -130 193 -216 236
-63 32 -124 88 -124 113 0 14 8 17 38 16 26 -1 37 3 38 14 1 8 2 23 3 32 1 14
7 16 31 12 29 -6 29 -6 23 30 l-6 37 28 -11 c28 -11 44 -2 45 25 0 6 15 15 33
20 27 8 32 15 30 37 -1 25 1 27 27 22 22 -5 29 -2 35 15 3 11 3 25 0 31 -3 5
2 11 12 11 41 3 46 5 51 18 3 10 0 11 -9 5 -12 -6 -12 -5 -1 8 8 9 23 18 35
20 14 2 24 12 27 28 3 17 13 26 30 29 28 3 42 19 35 38 -2 8 9 16 28 21 25 6
33 14 35 35 3 23 8 27 37 27 29 0 36 4 41 25 4 15 13 25 24 25 35 0 49 12 56
45 6 32 8 33 46 30 l40 -4 -4 35 c-3 29 0 36 17 40 12 3 28 4 35 2 10 -2 16 9
20 32 4 29 10 36 33 38 22 3 27 9 28 30 1 15 1 30 0 35 0 4 9 7 22 7 31 0 47
18 47 52 0 23 4 28 23 28 33 0 47 18 40 51 -5 28 -4 29 31 29 35 0 36 1 36 40
0 38 2 40 30 40 28 0 30 2 30 41 0 36 2 40 20 34 22 -7 29 4 34 51 3 25 8 29
36 32 30 3 32 5 28 38 -4 31 -2 34 23 34 28 0 39 15 39 56 0 17 7 25 25 30 16
4 25 13 25 25 0 24 15 25 25 2z m-1535 -1431 c31 -46 34 -72 9 -72 -26 0 -24
-12 6 -44 14 -15 25 -30 25 -34 0 -10 48 -51 101 -87 73 -48 141 -129 178
-210 13 -27 27 -58 32 -67 5 -10 9 -25 9 -34 0 -13 -7 -11 -34 10 -19 14 -38
26 -41 26 -11 0 -118 87 -154 124 -19 20 -38 36 -42 36 -5 0 -9 7 -9 15 0 8
-9 19 -19 25 -26 14 -81 122 -93 185 -13 69 -15 165 -3 165 6 0 21 -17 35 -38z
m-2649 -2214 c20 -23 25 -63 9 -73 -5 -3 -10 -26 -10 -49 0 -35 -4 -45 -20
-49 -16 -4 -20 -14 -20 -50 0 -31 -5 -47 -15 -51 -9 -3 -15 -18 -15 -35 0 -18
-10 -41 -25 -57 -14 -15 -25 -39 -25 -54 0 -16 -7 -30 -15 -34 -9 -3 -15 -18
-15 -40 0 -25 -6 -38 -20 -46 -13 -7 -20 -21 -20 -40 0 -17 -9 -39 -19 -49
-10 -10 -22 -32 -26 -49 -3 -16 -15 -38 -26 -48 -12 -11 -19 -31 -20 -58 0
-23 -3 -35 -6 -29 -7 20 -33 -11 -33 -40 0 -13 -9 -34 -20 -47 -11 -13 -20
-32 -20 -44 0 -12 -9 -32 -20 -46 -11 -14 -20 -40 -20 -57 0 -22 -5 -33 -15
-33 -18 0 -34 -29 -37 -69 -1 -17 -8 -31 -15 -31 -7 0 -15 -16 -19 -35 -3 -20
-15 -40 -25 -46 -13 -6 -19 -21 -19 -43 0 -20 -8 -40 -20 -51 -11 -10 -20 -25
-20 -34 0 -9 -8 -32 -19 -51 -10 -19 -22 -50 -25 -67 -4 -18 -13 -36 -20 -40
-7 -5 -16 -23 -20 -42 -3 -19 -13 -42 -22 -52 -19 -21 -25 -184 -7 -220 23
-50 53 -119 53 -125 0 -14 91 -143 127 -179 63 -65 163 -155 171 -155 4 -1 23
-14 42 -30 19 -17 38 -30 43 -30 5 0 26 -13 47 -30 21 -16 42 -30 46 -30 14 0
85 -66 106 -97 21 -33 24 -100 4 -128 -7 -11 -17 -35 -21 -53 -4 -18 -13 -36
-21 -39 -8 -3 -19 -23 -24 -44 -6 -21 -15 -39 -21 -39 -5 0 -18 -20 -28 -44
-11 -24 -26 -46 -35 -49 -9 -4 -16 -14 -16 -24 0 -10 -7 -31 -15 -47 -8 -15
-15 -37 -15 -47 0 -18 -24 -19 -882 -19 -486 0 -888 4 -894 8 -6 4 -18 34 -26
67 -9 33 -22 76 -31 97 -22 51 -109 137 -202 199 -111 74 -122 88 -141 174
-13 57 3 186 22 178 9 -3 14 1 14 12 0 22 34 54 85 80 22 11 65 46 96 77 61
62 59 59 124 278 20 69 55 163 78 210 22 47 41 87 41 90 1 3 10 19 22 35 11
17 24 37 27 45 4 8 13 24 19 35 78 120 124 189 158 235 22 30 48 66 57 80 33
48 198 207 253 242 30 20 116 66 190 103 74 36 145 72 157 79 33 19 109 92
193 187 99 112 180 191 245 237 27 19 98 64 170 108 44 26 109 66 145 89 36
22 85 49 110 59 25 10 52 22 60 27 30 18 115 58 124 59 5 0 17 -10 27 -22z"/>
<path d="M5590 7185 c0 -7 77 -45 92 -45 7 0 -8 11 -34 25 -48 25 -58 29 -58
20z"/>
<path d="M4210 6487 c0 -29 60 -97 144 -160 53 -41 76 -46 76 -19 0 16 -79
102 -94 102 -6 0 -25 15 -81 63 -36 30 -45 33 -45 14z"/>
<path d="M4600 5915 c0 -8 5 -15 10 -15 6 0 10 -7 10 -15 0 -8 7 -15 15 -15 9
0 18 -6 21 -14 4 -11 44 -29 61 -27 2 0 16 -4 33 -9 39 -11 59 -4 53 20 -8 29
56 20 202 -27 33 -11 69 -24 79 -28 39 -17 6 11 -41 34 -26 13 -55 28 -63 32
-67 38 -138 58 -225 65 -33 2 -81 6 -107 9 -37 3 -48 1 -48 -10z"/>
<path d="M6270 7260 c0 -5 5 -10 11 -10 5 0 7 5 4 10 -3 6 -8 10 -11 10 -2 0
-4 -4 -4 -10z"/>
<path d="M6995 5970 c-3 -5 -1 -10 4 -10 6 0 11 5 11 10 0 6 -2 10 -4 10 -3 0
-8 -4 -11 -10z"/>
<path d="M11696 5115 c-26 -19 -50 -35 -54 -35 -4 0 -13 -13 -20 -30 -7 -16
-27 -43 -43 -61 -55 -59 -61 -126 -33 -341 16 -131 17 -142 0 -217 -36 -171
-131 -288 -350 -434 -63 -43 -117 -77 -120 -77 -7 0 -88 -52 -96 -61 -3 -3
-19 -13 -35 -22 -51 -26 -166 -147 -191 -201 -31 -67 -31 -110 3 -158 26 -38
109 -88 146 -88 9 0 19 -4 22 -10 3 -5 21 -10 38 -10 32 0 163 -22 245 -40 23
-6 49 -10 58 -10 9 0 30 -6 47 -13 128 -53 236 -81 327 -84 52 -2 107 -6 123
-9 l27 -6 0 971 0 971 -24 0 c-14 0 -45 -16 -70 -35z"/>
</g>
</svg>
